<svg width="87" height="48" viewBox="0 0 87 48" fill="none" xmlns="http://www.w3.org/2000/svg">
<path d="M1.3 2.6H84.8C85.5 2.6 86.1 2 86.1 1.3C86.1 0.599999 85.6 0 84.9 0H1.3C0.6 0 0 0.599999 0 1.3C0 2 0.6 2.6 1.3 2.6Z" fill="white"/>
<path d="M84.9 22.5H1.3C0.6 22.5 0 23.1 0 23.8C0 24.5 0.6 25 1.3 25H84.8C85.5 25 86.1 24.4 86.1 23.7C86.1 23 85.6 22.5 84.9 22.5Z" fill="white"/>
<path d="M84.9 45H1.3C0.6 45 0 45.6 0 46.3C0 47 0.6 47.6 1.3 47.6H84.8C85.5 47.6 86.1 47 86.1 46.3C86.1 45.5 85.6 45 84.9 45Z" fill="white"/>
</svg>
